# xmcd
#
# Track frame offsets:
#	150
#	14370
#	24615
#	39825
#	53153
#	64832
#	79578
#	91417
#	100399
#	113919
#	127341
#	137183
#	150155
#	162255
#	176786
#	186749
#	197524
#	208130
#
# Disc length: 2931 seconds
#
# Revision: 1
# Processed by: cddbd v1.5.2PL0 Copyright (c) Steve Scherf et al.
# Submitted via: audiograbber 1.83.01
#
DISCID=fc0b7112
DTITLE=Johnny Cash - Johhny Cash and The Music That Inspired -Walk The Line-(Disc
DTITLE=3)
DYEAR=2008
DGENRE=Country
TTITLE0=The Carter Family - Can The Circle Be Unbroken?
TTITLE1=Billy Lee Riley - Rock With Me Baby 
TTITLE2=Blind Willie Johnson - Dark Was The Night(Cold Was The Ground)
TTITLE3=Bob Wills and His Texas Playboys - Milk Cow Blues
TTITLE4=Charlie Feathers - Defrost Your Heart
TTITLE5=The Carter Family - Wildwood Flower
TTITLE6=Earl Peterson - Boogie Blues
TTITLE7=Elvis Presley - That's All Right
TTITLE8=Guy Mitchell - She Wears Red Feathers
TTITLE9=Little Junior's Blue Fames - Feelin' Good
TTITLE10=June Carter and Carl Smith - Time's A-Wastin'
TTITLE11=Mississippi John Hurt - Candy Man
TTITLE12=Sister Rosetta Tharpe - Didn't It Rain
TTITLE13=The Carter Family - On The Sea Of Galilee
TTITLE14=Wade and Dick (The College Boys) - Bop Bop Baby
TTITLE15=Ernest Tubb - Try Me One More Time
TTITLE16=June Carter - Juke Box Blues
TTITLE17=Roy Hogsed - Cocaine Blues
EXTD=
EXTT0=
EXTT1=
EXTT2=
EXTT3=
EXTT4=
EXTT5=
EXTT6=
EXTT7=
EXTT8=
EXTT9=
EXTT10=
EXTT11=
EXTT12=
EXTT13=
EXTT14=
EXTT15=
EXTT16=
EXTT17=
PLAYORDER=
